<svg viewBox="0 0 130 33" fill="none" xmlns="http://www.w3.org/2000/svg"><g clip-path="url(#cashify-logo_svg__clip0_3017_1986)"><path d="M45.6928 10.8814L43.579 13.454C43.0673 12.8374 42.4342 12.3326 41.7191 11.971C41.0024 11.6107 40.2182 11.4041 39.4169 11.3648C38.1291 11.4018 36.9064 11.9394 36.0086 12.8634C35.1108 13.7874 34.6086 15.025 34.6086 16.3134C34.6086 17.6017 35.1108 18.8393 36.0086 19.7633C36.9064 20.6873 38.1291 21.225 39.4169 21.262C40.9939 21.1881 42.483 20.514 43.579 19.3776L45.7092 21.6963C44.0132 23.462 41.692 24.4916 39.2448 24.5638C37.6367 24.6137 36.05 24.1858 34.685 23.3342C33.32 22.4825 32.2382 21.2454 31.5761 19.7791C31.1356 18.8042 30.8933 17.7515 30.8633 16.6821V16.3544C30.8668 15.2825 31.0812 14.2219 31.4942 13.2328C31.9046 12.2435 32.5092 11.3464 33.2721 10.5946C34.0342 9.8407 34.9358 9.24239 35.9266 8.83308C36.9163 8.42478 37.9776 8.21864 39.0482 8.2268C39.1629 8.2268 39.2776 8.2268 39.3923 8.23499C41.759 8.25294 44.0231 9.20391 45.6928 10.8814Z" fill="#42C8B7"/><path d="M50.8466 21.3045L49.5931 24.4179H45.8652L52.813 8.35938H56.5408L63.3657 24.4179H59.5068L58.2532 21.3045H50.8466ZM54.5663 12.1446L52.0346 18.3877H57.0816L54.5663 12.1446Z" fill="#42C8B7"/><path d="M76.1801 9.34938L75.115 12.4873C73.5155 11.7139 71.754 11.3346 69.9779 11.3813C68.7736 11.5124 68.0034 12.0285 68.0935 12.897C68.4049 15.8383 76.7127 13.2903 77.3026 19.0418C77.6385 22.1716 75.1068 24.1461 71.5838 24.523C69.0174 24.785 66.4392 24.1542 64.2837 22.7369L65.4062 19.6399C67.1148 20.8843 69.1931 21.5165 71.3052 21.4342C72.78 21.2785 73.6075 20.6313 73.5092 19.6481C73.1896 16.6412 64.8982 19.304 64.2919 13.6344C63.9806 10.7422 66.2665 8.64477 69.9534 8.25151C72.0908 8.02859 74.2479 8.40892 76.1801 9.34938Z" fill="#42C8B7"/><path d="M90.3539 24.4179V18.0928H83.1112V24.4179H79.498V8.35938H83.1112V15.0531H90.3539V8.35938H93.9671V24.4179H90.3539Z" fill="#42C8B7"/><path d="M99.6199 8.375H96.1133V24.4007H99.6199V8.375Z" fill="#42C8B7"/><path d="M101.727 24.3921H105.233V18.4521H111.485V14.9291H105.233V11.9058H112.337V8.38281H101.727V24.3921Z" fill="#42C8B7"/><path d="M125.806 8.375L121.75 14.6263L117.637 8.375H113.418L120.005 18.346V24.4007H123.512V18.3378L130.001 8.375H125.806Z" fill="#42C8B7"/><path d="M16.3534 32.7745C7.34102 32.7745 0 25.4253 0 16.3883C0 7.3513 7.33283 0.00208389 16.3534 0.00208389C18.5137 -0.00662432 20.6537 0.419695 22.6457 1.25563C24.6388 2.09076 26.4462 3.31332 27.9631 4.8524C28.1927 5.08153 28.3739 5.35461 28.4956 5.65533C28.6185 5.95433 28.6825 6.27426 28.6841 6.59753C28.6839 6.92218 28.6194 7.24357 28.4942 7.54312C28.3691 7.84266 28.1857 8.11442 27.9549 8.34267C27.7258 8.57235 27.4527 8.75347 27.152 8.87522C26.8529 8.99811 26.533 9.0621 26.2097 9.06366C25.8851 9.0635 25.5637 8.99898 25.2642 8.87381C24.9646 8.74865 24.6929 8.56534 24.4646 8.33447C23.4063 7.26072 22.1447 6.40849 20.7535 5.82753C19.3623 5.24657 17.8693 4.9485 16.3616 4.95072C10.0693 4.95072 4.94864 10.0796 4.94864 16.3883C4.94864 22.697 10.0693 27.8259 16.3616 27.8259C17.8693 27.8281 19.3623 27.53 20.7535 26.9491C22.1447 26.3681 23.4063 25.5159 24.4646 24.4421C24.693 24.2112 24.9647 24.0275 25.2641 23.9018C25.5636 23.776 25.8849 23.7106 26.2097 23.7093C26.5345 23.708 26.8564 23.7708 27.1569 23.8942C27.4573 24.0175 27.7305 24.1989 27.9607 24.4281C28.1909 24.6572 28.3736 24.9295 28.4984 25.2294C28.6231 25.5293 28.6874 25.8508 28.6877 26.1756C28.6879 26.5004 28.624 26.8221 28.4997 27.1221C28.3753 27.4222 28.193 27.6948 27.9631 27.9242C26.4482 29.4648 24.641 30.6874 22.6474 31.5203C20.6538 32.3531 18.514 32.7796 16.3534 32.7745Z" fill="#42C8B7"/><path fill-rule="evenodd" clip-rule="evenodd" d="M21.3678 15.1596L19.8603 16.6753L17.2877 19.2561C16.6486 19.8952 16.239 19.9525 15.5999 19.3053C15.264 18.9694 14.9281 18.6253 14.5922 18.2893C13.7646 17.4618 12.9126 16.6016 12.0769 15.7659C11.7795 15.4644 11.6119 15.0586 11.6099 14.6352C11.6101 14.4266 11.6515 14.2201 11.7316 14.0275C11.8118 13.8349 11.9291 13.66 12.0769 13.5128C12.355 13.2352 12.7251 13.0691 13.1174 13.0457H13.2157C13.4187 13.0454 13.6196 13.0872 13.8056 13.1686C13.9926 13.2505 14.1622 13.3673 14.3054 13.5128C14.6495 13.8487 14.9936 14.1928 15.3295 14.5369L16.4192 15.6348L20.8845 11.1449L21.0647 10.9483C21.1958 10.8172 21.3351 10.6861 21.4662 10.5469L21.4989 10.5141C20.0638 9.25218 18.2123 8.56621 16.3014 8.58841C14.3905 8.61062 12.5555 9.33942 11.1501 10.6343C9.74463 11.9292 8.8683 13.6986 8.69 15.6013C8.51171 17.504 9.04407 19.4053 10.1845 20.9388C11.3249 22.4722 12.9926 23.5293 14.8661 23.9061C16.7396 24.2829 18.6862 23.9529 20.3308 22.9795C21.9754 22.0062 23.2015 20.4586 23.7727 18.6349C24.3439 16.8112 24.2198 14.8407 23.4243 13.1031C22.7361 13.7995 22.0479 14.4795 21.3678 15.1596Z" fill="#42C86B"/></g><defs><clipPath id="cashify-logo_svg__clip0_3017_1986"><rect width="130" height="32.7727" fill="white"/></clipPath></defs></svg>
